<svg xmlns="http://www.w3.org/2000/svg" viewBox="0 0 17.59 18.07"><defs><style>.cls-1{fill:#f74d51;}</style></defs><title>feedback</title><g id="Layer_2" data-name="Layer 2"><g id="Layer_7" data-name="Layer 7"><path class="cls-1" d="M17.16,9.41A2.29,2.29,0,0,0,16.53,7a4.36,4.36,0,0,0-3.17-.79,11.83,11.83,0,0,0-1.84.23l-.09,0a10.23,10.23,0,0,1,.4-1.52c.54-1.66.5-3-.15-3.85A2.7,2.7,0,0,0,9.53,0a1.28,1.28,0,0,0-1,.45,2.6,2.6,0,0,0-.4,1.93c-.64,1.67-1.87,4.33-2.78,5l-.12.1a4,4,0,0,0-.62.85,1.91,1.91,0,0,0-.54-.08H1.88A1.88,1.88,0,0,0,0,10.16v5.89a1.88,1.88,0,0,0,1.88,1.88H4.09a1.89,1.89,0,0,0,1-.26l.71.08a35,35,0,0,0,4.85.27c.44,0,.86.05,1.24.05a8.35,8.35,0,0,0,1.77-.16,3.51,3.51,0,0,0,2.5-1.58,2.62,2.62,0,0,0,.31-1.43,2.67,2.67,0,0,0,.69-2.68,2.48,2.48,0,0,0,.47-1.52A2.66,2.66,0,0,0,17.16,9.41Zm-12.91.75v5.89a.16.16,0,0,1-.16.15H1.85a.16.16,0,0,1-.12-.15V10.16A.16.16,0,0,1,1.88,10H4.09A.16.16,0,0,1,4.25,10.16Zm11.09,2.26h0a.3.3,0,0,0,0,.08,1.13,1.13,0,0,1,.12.44,1.1,1.1,0,0,1-.54.94.88.88,0,0,0-.29,1,1,1,0,0,1-.07.64,2,2,0,0,1-1.35.73,9.61,9.61,0,0,1-2.62.07A34.3,34.3,0,0,1,6,16V10.16a2.3,2.3,0,0,0,0-.45,2.67,2.67,0,0,1,.52-1c1.68-1.33,3.23-5.52,3.4-6a.8.8,0,0,0,0-.43,4,4,0,0,1,0-.57.83.83,0,0,1,.43.28,2.87,2.87,0,0,1-.1,2.3c-.67,2-.69,3.09-.07,3.64a1.15,1.15,0,0,0,1.12.23l.68-.14c1.28-.28,3-.3,3.46.15a.65.65,0,0,1,.06.84.87.87,0,0,0,.14,1.11,1,1,0,0,1,.29.59,1,1,0,0,1-.35.7h0A.86.86,0,0,0,15.34,12.42Z"/></g></g></svg>