<svg xmlns="http://www.w3.org/2000/svg" viewBox="0 0 17.59 18.07"><defs><style>.cls-1{stroke:#000;stroke-miterlimit:10;stroke-width:0.75px;}</style></defs><title>feedback_1</title><g id="Layer_2" data-name="Layer 2"><g id="Layer_7" data-name="Layer 7"><path class="cls-1" d="M16.71,12.15a2.09,2.09,0,0,0,0-2.68,1.93,1.93,0,0,0-.46-2.23,4,4,0,0,0-2.91-.7,11.73,11.73,0,0,0-1.78.23h0L11,6.89a6.08,6.08,0,0,1,.45-2.11c.51-1.54.48-2.72-.09-3.51A2.32,2.32,0,0,0,9.53.38a.93.93,0,0,0-.7.31,2.45,2.45,0,0,0-.3,1.73C8.05,3.7,6.71,6.85,5.58,7.72l-.06,0a3.82,3.82,0,0,0-.71,1.07,1.45,1.45,0,0,0-.72-.18H1.88a1.5,1.5,0,0,0-1.5,1.5v5.89a1.51,1.51,0,0,0,1.5,1.51H4.09A1.55,1.55,0,0,0,5,17.28l.85.1a37,37,0,0,0,4.83.27c.43,0,.84.05,1.21.05a8.28,8.28,0,0,0,1.69-.15,3.18,3.18,0,0,0,2.25-1.4A2.22,2.22,0,0,0,16,14.76a2.3,2.3,0,0,0,.83-1.88A2.67,2.67,0,0,0,16.71,12.15ZM1.88,16.58a.53.53,0,0,1-.53-.53V10.16a.53.53,0,0,1,.53-.53H4.09a.53.53,0,0,1,.53.53v5.89a.52.52,0,0,1-.53.52H1.88Zm13.9-4.85a.48.48,0,0,0-.06.59,1.59,1.59,0,0,1,.16.6,1.44,1.44,0,0,1-.68,1.26.49.49,0,0,0-.17.55,1.29,1.29,0,0,1-.09.94,2.3,2.3,0,0,1-1.6.92,9.48,9.48,0,0,1-2.64.08h-.06a34.28,34.28,0,0,1-4.7-.26h0l-.36,0a1.66,1.66,0,0,0,0-.32V10.16a1.63,1.63,0,0,0-.07-.45A3,3,0,0,1,6.2,8.47C7.83,7.18,9.42,2.83,9.49,2.64a.4.4,0,0,0,0-.24,2.22,2.22,0,0,1,.05-1,1.27,1.27,0,0,1,1,.48,3.13,3.13,0,0,1,0,2.64c-.61,1.84-.66,2.81-.18,3.24a.81.81,0,0,0,.79.14l.63-.13h.05c1.11-.24,3.1-.39,3.79.24a1,1,0,0,1,.12,1.33.49.49,0,0,0,.09.63,1.28,1.28,0,0,1,.4.84A1.32,1.32,0,0,1,15.78,11.73Z"/></g></g></svg>