<svg xmlns="http://www.w3.org/2000/svg" viewBox="0 0 17.8 17.8"><defs><style>.cls-1{fill:#f74d51;}</style></defs><title>gear</title><g id="Layer_2" data-name="Layer 2"><g id="Layer_7" data-name="Layer 7"><path class="cls-1" d="M16.89,7l-1.25-.21a7.16,7.16,0,0,0-.5-1.21l.73-1a1.09,1.09,0,0,0-.11-1.42L14.65,2.05a1.1,1.1,0,0,0-.78-.32,1.13,1.13,0,0,0-.64.2l-1,.74a7,7,0,0,0-1.26-.52L10.74.92A1.11,1.11,0,0,0,9.65,0H8.08A1.1,1.1,0,0,0,7,.92L6.78,2.18a7.07,7.07,0,0,0-1.21.51L4.55,2a1,1,0,0,0-.64-.21,1.14,1.14,0,0,0-.78.32L2,3.18A1.11,1.11,0,0,0,1.9,4.6l.75,1a7.12,7.12,0,0,0-.5,1.22L.92,7.07A1.1,1.1,0,0,0,0,8.15V9.72a1.11,1.11,0,0,0,.92,1.09L2.18,11a6.75,6.75,0,0,0,.51,1.21l-.73,1a1.11,1.11,0,0,0,.12,1.42l1.11,1.1A1.08,1.08,0,0,0,4,16.1a1.07,1.07,0,0,0,.64-.21l1-.74a6.35,6.35,0,0,0,1.18.48L7,16.88a1.1,1.1,0,0,0,1.08.92H9.68a1.11,1.11,0,0,0,1.09-.92L11,15.63a6.42,6.42,0,0,0,1.21-.5l1,.74a1.13,1.13,0,0,0,.64.2h0a1.08,1.08,0,0,0,.78-.32l1.11-1.11a1.11,1.11,0,0,0,.12-1.42l-.74-1a6.31,6.31,0,0,0,.5-1.21l1.25-.21a1.11,1.11,0,0,0,.92-1.09V8.12A1.09,1.09,0,0,0,16.89,7ZM16.8,9.68a.1.1,0,0,1-.08.1L15.16,10a.49.49,0,0,0-.4.37A6.07,6.07,0,0,1,14.11,12a.5.5,0,0,0,0,.54l.92,1.3a.09.09,0,0,1,0,.12L13.93,15a.07.07,0,0,1-.07,0l0,0-1.29-.92a.52.52,0,0,0-.55,0,5.92,5.92,0,0,1-1.56.65.51.51,0,0,0-.37.4l-.26,1.56a.1.1,0,0,1-.1.08H8.12a.1.1,0,0,1-.1-.08l-.26-1.56a.49.49,0,0,0-.37-.4,6.11,6.11,0,0,1-1.52-.63.57.57,0,0,0-.25-.06.53.53,0,0,0-.3.09L4,15.09H4a.07.07,0,0,1-.07,0L2.79,14a.11.11,0,0,1,0-.13l.91-1.28a.48.48,0,0,0,0-.55,5.92,5.92,0,0,1-.65-1.56.52.52,0,0,0-.4-.37L1.09,9.82A.11.11,0,0,1,1,9.72V8.15a.11.11,0,0,1,.09-.09L2.64,7.8A.52.52,0,0,0,3,7.43a6,6,0,0,1,.64-1.57.48.48,0,0,0,0-.54L2.73,4a.09.09,0,0,1,0-.13l1.1-1.1a.1.1,0,0,1,.08,0H4l1.28.92a.52.52,0,0,0,.55,0,5.92,5.92,0,0,1,1.56-.65.54.54,0,0,0,.37-.4L8,1.08A.1.1,0,0,1,8.09,1H9.66a.08.08,0,0,1,.09.08L10,2.63a.52.52,0,0,0,.38.41A6.12,6.12,0,0,1,12,3.69a.5.5,0,0,0,.55,0l1.28-.92.06,0a.09.09,0,0,1,.07,0l1.11,1.11a.1.1,0,0,1,0,.12l-.92,1.29a.5.5,0,0,0,0,.55,5.9,5.9,0,0,1,.64,1.56.51.51,0,0,0,.4.37L16.73,8a.11.11,0,0,1,.08.1V9.68Z"/><path class="cls-1" d="M8.9,5.06A3.84,3.84,0,1,0,12.74,8.9,3.84,3.84,0,0,0,8.9,5.06Zm0,6.68A2.84,2.84,0,1,1,11.74,8.9,2.85,2.85,0,0,1,8.9,11.74Z"/></g></g></svg>