<svg xmlns="http://www.w3.org/2000/svg" viewBox="0 0 26.03 19.93"><defs><style>.cls-1,.cls-2{fill:#4c4d4d;}.cls-2{font-size:12px;font-family:Roboto-Medium, Roboto;}</style></defs><title>Keyword</title><g id="Layer_2" data-name="Layer 2"><g id="Layer_7" data-name="Layer 7"><path class="cls-1" d="M23.62,3.31a3.29,3.29,0,0,0-.22-1.17h-.65V17.78h.65a3.18,3.18,0,0,0,.22-1.15Z"/><path class="cls-1" d="M18.23,19a1.22,1.22,0,0,1,.58-1.05H3.31A1.31,1.31,0,0,1,2,16.63V3.31A1.31,1.31,0,0,1,3.31,2H18.82A1.22,1.22,0,0,1,18.23.94,1.22,1.22,0,0,1,18.67,0H3.31A3.31,3.31,0,0,0,0,3.31V16.63a3.31,3.31,0,0,0,3.31,3.3H18.68A1.21,1.21,0,0,1,18.23,19Z"/><path class="cls-1" d="M23.15,19.27a.59.59,0,0,1-.53-.63V1.35a.59.59,0,0,1,.53-.63.58.58,0,0,1,.52.63V18.64A.58.58,0,0,1,23.15,19.27Z"/><path class="cls-1" d="M25.51,1.56H20.79a.59.59,0,0,1-.53-.63.6.6,0,0,1,.53-.64h4.72A.59.59,0,0,1,26,.93.58.58,0,0,1,25.51,1.56Z"/><path class="cls-1" d="M25.51,19.27H20.79a.59.59,0,0,1-.53-.63.6.6,0,0,1,.53-.64h4.72a.59.59,0,0,1,.52.64A.58.58,0,0,1,25.51,19.27Z"/><text class="cls-2" transform="translate(4.3 14.05)">Aa</text></g></g></svg>