<svg xmlns="http://www.w3.org/2000/svg" viewBox="0 0 24.79 24.79"><title>logout</title><g id="Layer_2" data-name="Layer 2"><g id="Layer_7" data-name="Layer 7"><path d="M9.29,12.39a3.1,3.1,0,0,1,3.1-3.1h4.13V1a1,1,0,0,0-1-1H1A1,1,0,0,0,0,1V23.75a1,1,0,0,0,1,1H15.49a1,1,0,0,0,1-1V15.49H12.39A3.1,3.1,0,0,1,9.29,12.39Z"/><path d="M24.55,13.05v0a.18.18,0,0,0,.05-.07l0,0,0,0,0-.05a.59.59,0,0,0,0-.09s0,0,0-.05l0-.06v0a.28.28,0,0,1,0-.09h0a.74.74,0,0,0,0-.21v0a.19.19,0,0,1,0-.08.06.06,0,0,1,0,0s0,0,0-.06v0l0-.05s0,0,0-.05l0,0,0-.05a.05.05,0,0,0,0,0l-.05-.07h0a.27.27,0,0,0-.07-.08L20.35,7.53A1,1,0,1,0,18.89,9l2.37,2.37H12.39a1,1,0,0,0,0,2.07h8.87l-2.37,2.36a1,1,0,0,0,0,1.46,1,1,0,0,0,.73.31,1,1,0,0,0,.73-.31l4.13-4.12Z"/></g></g></svg>