<svg xmlns="http://www.w3.org/2000/svg" xmlns:xlink="http://www.w3.org/1999/xlink" viewBox="0 0 177.24 35.16"><defs><style>.cls-1{fill:#fff;}.cls-2{fill:none;}.cls-3{mask:url(#mask);}.cls-4{fill:#de1720;}</style><mask id="mask" x="70.42" y="-2.45" width="62.38" height="41.92" maskUnits="userSpaceOnUse"><rect class="cls-1" x="70.42" y="-2.45" width="62.38" height="41.92"/><path class="cls-2" d="M102,19.51"/></mask></defs><title>Logo</title><g id="Layer_2" data-name="Layer 2"><g id="Layer_7" data-name="Layer 7"><path d="M0,26.66a1.35,1.35,0,0,1,1.37-1.37s.83.27,1.5.54a10.57,10.57,0,0,0,4.33,1c2.63,0,4.46-1.14,4.46-3.6S9.9,20.06,7,19.1c-3.64-1.2-7-2.44-7-6.83C0,8.2,3.07,6.5,7.36,6.5a13.93,13.93,0,0,1,5.47,1.13,1.38,1.38,0,0,1-.5,2.67,1.11,1.11,0,0,1-.6-.13A10.61,10.61,0,0,0,7.33,9c-2.23,0-4,.9-4,3.07,0,2.53,2.6,3.6,4.9,4.36C11.43,17.53,15,18.46,15,23s-3.63,6.33-8,6.33A14.42,14.42,0,0,1,.8,27.93,1.37,1.37,0,0,1,0,26.66Z"/><path d="M39.09,18.4v9.29a1.5,1.5,0,0,1-3,0V18.76c0-1.9-.13-4.16-2.73-4.16-2.27,0-3.6,1.9-3.6,5.7v7.39a1.5,1.5,0,0,1-3,0V18.76c0-1.9-.13-4.16-2.73-4.16-2.27,0-3.6,1.9-3.6,5.7v7.39a1.5,1.5,0,1,1-3,0V13.63a1.42,1.42,0,0,1,2.83-.16l.17,1.36a5,5,0,0,1,4.7-2.7,4.15,4.15,0,0,1,3.13,1.3A4,4,0,0,1,29.09,15a.55.55,0,0,0,.1-.17,5.7,5.7,0,0,1,5.13-2.7C36.52,12.13,39.09,13.43,39.09,18.4Z"/><path d="M55.18,27.93a1.34,1.34,0,0,1-1.5,1.33,4.39,4.39,0,0,1-2.43-.9,2.12,2.12,0,0,1-.66-1.3c-.57,1.13-2,2.23-4.57,2.23-3.36,0-5.16-1.93-5.16-5,0-3.37,2.1-5.13,7.13-5.2l2.36,0V17.36c0-2.26-1.43-3-3.33-3a10.84,10.84,0,0,0-3.8.86,1,1,0,0,1-.46.07,1.23,1.23,0,0,1-1.24-1.23,1.28,1.28,0,0,1,.84-1.17,16.89,16.89,0,0,1,5-.8c3.64,0,6,1.6,6,4.93v8.2c0,.87.37,1.2.83,1.33A1.4,1.4,0,0,1,55.18,27.93ZM50.32,21.2l-2,0c-2.43,0-4.3.57-4.3,2.93A2.58,2.58,0,0,0,46.45,27c.8,0,3.87-.37,3.87-3.6Z"/><path d="M65.7,13.63a1.47,1.47,0,0,1-1.5,1.47h-.3c-1.6,0-3.1.86-3.1,4.5v8.09a1.5,1.5,0,0,1-3,0V13.6a1.4,1.4,0,0,1,1.4-1.4,1.42,1.42,0,0,1,1.4,1.27l.13,1.3a4.43,4.43,0,0,1,2.77-2.44,1.63,1.63,0,0,1,1.83.34A1.45,1.45,0,0,1,65.7,13.63Z"/><path d="M76.66,27.93a1.18,1.18,0,0,1-.94,1.13,8.21,8.21,0,0,1-2,.23c-2.6,0-4.54-.93-4.54-4.36V14.6H68a1.12,1.12,0,1,1,0-2.23h1.2V9.23a1.5,1.5,0,0,1,3,0v3.14h2.9a1.12,1.12,0,1,1,0,2.23h-2.9V24.73c0,1.6.64,2.26,1.77,2.26a3.9,3.9,0,0,0,1.23-.2A1.19,1.19,0,0,1,76.66,27.93Z"/><path d="M142.33,26.79a1.69,1.69,0,0,1,.24.8,1.62,1.62,0,0,1-1.6,1.6,1.55,1.55,0,0,1-1.37-.8l-4.66-8.13h-4.17v7.37a1.57,1.57,0,0,1-3.13,0V8.47a1.46,1.46,0,0,1,1.63-1.63h6.17c5.3,0,7.73,3,7.73,6.49,0,2.8-1,5.5-4.87,6.53Zm-7.56-9.06c4.1,0,5.1-2.1,5.07-4.4,0-2.9-1.64-4-4.57-4h-4.5v8.36Z"/><path d="M159.34,20.7c0,5-2.39,8.56-7.29,8.56s-7.3-3.53-7.3-8.56,2.4-8.57,7.3-8.57S159.34,15.66,159.34,20.7Zm-3.13,0c0-3.87-1.3-6.3-4.16-6.3s-4.17,2.43-4.17,6.3,1.3,6.29,4.17,6.29S156.21,24.59,156.21,20.7Z"/><path d="M162.16,25.79V7a1.5,1.5,0,1,1,3,0V25.36c0,1.37.5,1.73,1.37,1.73a3.19,3.19,0,0,0,.8-.1,1.19,1.19,0,0,1,1.36,1.14,1.1,1.1,0,0,1-1,1.09,8.21,8.21,0,0,1-1.5.14C163.86,29.36,162.16,29,162.16,25.79Z"/><path d="M170.71,25.79V7a1.5,1.5,0,1,1,3,0V25.36c0,1.37.5,1.73,1.36,1.73a3.08,3.08,0,0,0,.8-.1,1.19,1.19,0,0,1,1.37,1.14,1.1,1.1,0,0,1-1,1.09,8.06,8.06,0,0,1-1.5.14C172.41,29.36,170.71,29,170.71,25.79Z"/><g class="cls-3"><path class="cls-4" d="M110.29,12.69h-2.13v9.65h2.13c3.16,0,5.25-1.73,5.25-4.78V17.5C115.54,14.48,113.45,12.69,110.29,12.69Z"/><polygon class="cls-4" points="91.05 19.5 95.29 19.5 93.18 14.15 91.05 19.5"/><path class="cls-4" d="M111.46,0H91.24A13,13,0,0,0,78.3,12.94v9.29A13,13,0,0,0,91.24,35.16h20.22a13,13,0,0,0,12.93-12.93V12.94A13,13,0,0,0,111.46,0ZM98.18,27l-1.35-3.41H89.51L88.16,27H82.67l8-19h5l8,19Zm22.71-9.58c0,5.49-4,9.58-10.76,9.58h-3.24c-.36,0-.57-.31-.73-.63L98.8,8.88h0a.6.6,0,0,1-.06-.27.68.68,0,0,1,.68-.67h10.82c6.73,0,10.65,3.91,10.65,9.41Z"/><polyline class="cls-4" points="91.05 19.5 89.31 24.12 96.83 23.58 95.29 19.5"/></g><rect class="cls-4" x="93.79" y="17.57" width="15.18" height="2.63"/></g></g></svg>