<svg xmlns="http://www.w3.org/2000/svg" viewBox="0 0 24.9 24.9"><defs><style>.cls-1{fill:#f74d51;}</style></defs><title>myaccount</title><g id="Layer_2" data-name="Layer 2"><g id="Layer_7" data-name="Layer 7"><g id="account-circle"><path class="cls-1" d="M12.45,0A12.45,12.45,0,1,0,24.9,12.45,12.48,12.48,0,0,0,12.45,0Zm0,3.74a3.66,3.66,0,0,1,3.74,3.73,3.67,3.67,0,0,1-3.74,3.74A3.67,3.67,0,0,1,8.72,7.47,3.66,3.66,0,0,1,12.45,3.74Zm0,17.68a9.08,9.08,0,0,1-7.47-4c0-2.49,5-3.86,7.47-3.86s7.47,1.37,7.47,3.86A9.08,9.08,0,0,1,12.45,21.42Z"/></g></g></g></svg>