<svg xmlns="http://www.w3.org/2000/svg" viewBox="0 0 20.6 21.86"><defs><style>.cls-1{stroke:#000;stroke-miterlimit:10;stroke-width:0.7px;}</style></defs><title>support_1</title><g id="Layer_2" data-name="Layer 2"><g id="Layer_7" data-name="Layer 7"><path class="cls-1" d="M17.54,8.4V7.58a7.42,7.42,0,0,0-1.94-5.1,6.67,6.67,0,0,0-5-2.13H10A6.67,6.67,0,0,0,5,2.48a7.42,7.42,0,0,0-1.94,5.1V8.4A2.91,2.91,0,0,0,.35,11.3v1.27a2.91,2.91,0,0,0,2.91,2.92H4.9A.54.54,0,0,0,5.43,15v-6a.53.53,0,0,0-.53-.53H4.14V7.58A5.87,5.87,0,0,1,10,1.41h.68a5.88,5.88,0,0,1,5.83,6.17v.81H15.7a.53.53,0,0,0-.53.53v6a.53.53,0,0,0,.53.53h.75a3.56,3.56,0,0,1-3,3.58,1.88,1.88,0,0,0-1.78-1.3H10.31a1.88,1.88,0,0,0,0,3.75h1.34a1.88,1.88,0,0,0,1.8-1.38,4.91,4.91,0,0,0,1.81-.61,4.71,4.71,0,0,0,2.26-4,2.92,2.92,0,0,0,2.73-2.91V11.3A2.89,2.89,0,0,0,17.54,8.4Zm-13.16,6H3.27a1.85,1.85,0,0,1-1.85-1.85V11.3A1.85,1.85,0,0,1,3.27,9.45H4.38Zm7.27,6H10.31a.8.8,0,1,1,0-1.6h1.34a.8.8,0,1,1,0,1.6Zm7.54-7.87a1.85,1.85,0,0,1-1.84,1.85H16.24v-5h1.11a1.85,1.85,0,0,1,1.84,1.85Z"/></g></g></svg>