<svg xmlns="http://www.w3.org/2000/svg" viewBox="0 0 20.6 21.86"><defs><style>.cls-1{fill:#f74d51;}</style></defs><title>support</title><g id="Layer_2" data-name="Layer 2"><g id="Layer_7" data-name="Layer 7"><path class="cls-1" d="M17.89,8.09V7.58a7.76,7.76,0,0,0-2-5.33A7,7,0,0,0,10.64,0H10A7,7,0,0,0,4.75,2.25a7.76,7.76,0,0,0-2,5.33v.51A3.26,3.26,0,0,0,0,11.3v1.28a3.26,3.26,0,0,0,3.26,3.25H4.9A.87.87,0,0,0,5.78,15v-6A.87.87,0,0,0,4.9,8H4.48V7.58A5.53,5.53,0,0,1,10,1.76h.68a5.53,5.53,0,0,1,5.48,5.82V8H15.7a.87.87,0,0,0-.88.88v6a.87.87,0,0,0,.88.88h.36a3.13,3.13,0,0,1-2.42,2.83,2.23,2.23,0,0,0-2-1.24H10.31a2.22,2.22,0,0,0,0,4.44h1.34a2.22,2.22,0,0,0,2.06-1.42,5.28,5.28,0,0,0,1.73-.62,5,5,0,0,0,2.4-4,3.26,3.26,0,0,0,2.76-3.22V11.3A3.24,3.24,0,0,0,17.89,8.09Zm.95,3.21v1.27a1.5,1.5,0,0,1-1.49,1.5h-.76V9.8h.76A1.5,1.5,0,0,1,18.84,11.3ZM3.27,9.8H4v4.27H3.27a1.5,1.5,0,0,1-1.5-1.5V11.3A1.5,1.5,0,0,1,3.27,9.8Zm8.83,9.84a.46.46,0,0,1-.45.46H10.31a.46.46,0,0,1,0-.92h1.34A.46.46,0,0,1,12.1,19.64Z"/></g></g></svg>