<svg xmlns="http://www.w3.org/2000/svg" viewBox="0 0 41.45 41.45"><defs><style>.cls-1{isolation:isolate;}.cls-2{opacity:0.15;mix-blend-mode:multiply;}.cls-3,.cls-5{fill:none;stroke-miterlimit:10;stroke-width:0.44px;}.cls-3{stroke:#000;}.cls-4{fill:#fff;}.cls-5{stroke:#d6d6d6;}.cls-6{fill:#de1720;}</style></defs><title>Asset 10</title><g class="cls-1"><g id="Layer_2" data-name="Layer 2"><g id="Layer_7" data-name="Layer 7"><g class="cls-2"><circle cx="21.73" cy="21.73" r="19.51"/><circle class="cls-3" cx="21.73" cy="21.73" r="19.51"/></g><circle class="cls-4" cx="19.73" cy="19.73" r="19.51"/><circle class="cls-5" cx="19.73" cy="19.73" r="19.51"/><path class="cls-6" d="M30.47,17.21l-1.68-.28a9.31,9.31,0,0,0-.67-1.63l1-1.39A1.47,1.47,0,0,0,29,12l-1.49-1.49a1.48,1.48,0,0,0-1.05-.44,1.44,1.44,0,0,0-.85.28l-1.39,1a9.56,9.56,0,0,0-1.69-.7L22.2,9a1.48,1.48,0,0,0-1.47-1.23h-2.1A1.47,1.47,0,0,0,17.17,9l-.29,1.7a9.72,9.72,0,0,0-1.63.69l-1.37-1a1.47,1.47,0,0,0-1.91.16L10.48,12a1.47,1.47,0,0,0-.16,1.9l1,1.41A8.87,8.87,0,0,0,10.65,17L9,17.26a1.48,1.48,0,0,0-1.23,1.46v2.11A1.47,1.47,0,0,0,9,22.29l1.7.29a9.72,9.72,0,0,0,.69,1.63l-1,1.37a1.47,1.47,0,0,0,.16,1.9L12,29a1.48,1.48,0,0,0,1.05.44,1.44,1.44,0,0,0,.85-.28l1.41-1a8.75,8.75,0,0,0,1.58.65l.28,1.68a1.47,1.47,0,0,0,1.46,1.24h2.11a1.47,1.47,0,0,0,1.46-1.24l.29-1.68a9.63,9.63,0,0,0,1.63-.67l1.38,1a1.46,1.46,0,0,0,.86.27h0a1.47,1.47,0,0,0,1.05-.43l1.49-1.49a1.49,1.49,0,0,0,.16-1.91l-1-1.39a9.63,9.63,0,0,0,.67-1.63l1.68-.28a1.47,1.47,0,0,0,1.24-1.46V18.67A1.46,1.46,0,0,0,30.47,17.21Zm-.11,3.57a.13.13,0,0,1-.11.13l-2.1.35a.66.66,0,0,0-.54.5,8,8,0,0,1-.87,2.09.67.67,0,0,0,0,.74L28,26.33a.14.14,0,0,1,0,.17L26.5,28a.16.16,0,0,1-.1,0,.09.09,0,0,1-.07,0l-1.74-1.23a.65.65,0,0,0-.73,0,8,8,0,0,1-2.1.87.65.65,0,0,0-.49.54l-.36,2.1a.14.14,0,0,1-.13.11H18.67a.14.14,0,0,1-.13-.11l-.35-2.1a.65.65,0,0,0-.49-.54,8.35,8.35,0,0,1-2-.84.72.72,0,0,0-.34-.09.67.67,0,0,0-.39.12l-1.75,1.25-.08,0A.1.1,0,0,1,13,28l-1.49-1.49a.13.13,0,0,1,0-.17l1.23-1.72a.67.67,0,0,0,0-.74,8,8,0,0,1-.88-2.09.69.69,0,0,0-.54-.5L9.22,21a.12.12,0,0,1-.11-.13V18.72a.13.13,0,0,1,.11-.13l2.08-.35a.68.68,0,0,0,.55-.5,8.12,8.12,0,0,1,.85-2.1.67.67,0,0,0,0-.73l-1.25-1.75a.14.14,0,0,1,0-.17l1.49-1.49a.14.14,0,0,1,.09,0,.11.11,0,0,1,.08,0l1.72,1.23a.71.71,0,0,0,.74,0,8,8,0,0,1,2.09-.88.69.69,0,0,0,.5-.54l.36-2.12a.13.13,0,0,1,.13-.11h2.1a.13.13,0,0,1,.13.11l.36,2.09a.66.66,0,0,0,.5.54,8.33,8.33,0,0,1,2.14.88.67.67,0,0,0,.74,0l1.72-1.24.08,0a.1.1,0,0,1,.09,0L28,13a.13.13,0,0,1,0,.17l-1.24,1.73a.71.71,0,0,0,0,.74,8,8,0,0,1,.87,2.09.68.68,0,0,0,.54.5l2.1.35a.13.13,0,0,1,.11.13v2.11Z"/><path class="cls-6" d="M19.73,14.56a5.17,5.17,0,1,0,5.17,5.16A5.17,5.17,0,0,0,19.73,14.56Zm0,9a3.82,3.82,0,1,1,3.82-3.82A3.82,3.82,0,0,1,19.73,23.54Z"/></g></g></g></svg>