<svg xmlns="http://www.w3.org/2000/svg" viewBox="0 0 24.36 14.64"><defs><style>.cls-1{fill:#f74d51;}</style></defs><title>training</title><g id="Layer_2" data-name="Layer 2"><g id="Layer_7" data-name="Layer 7"><path class="cls-1" d="M23.51.8,9.84.84A7,7,0,0,0,5.67,2.26,2.87,2.87,0,1,0,2.88,5.74a2.56,2.56,0,0,0,.39,0A6.65,6.65,0,0,0,3,7.76a6.9,6.9,0,0,0,13.75.78l6.81,0a.83.83,0,0,0,.83-.82l0-6.08A.83.83,0,0,0,23.51.8ZM2.87,4.09A1.22,1.22,0,1,1,4.09,2.87,1.22,1.22,0,0,1,2.87,4.09ZM15.94,6.9a.83.83,0,0,0-.83.82A5.25,5.25,0,1,1,9.85,2.49H11.7V3.3a.83.83,0,0,0,.83.82.81.81,0,0,0,.82-.83V2.48l9.34,0V6.88Z"/></g></g></svg>