<svg xmlns="http://www.w3.org/2000/svg" viewBox="0 0 21.15 19.92"><defs><style>.cls-1{fill:#4c4d4d;stroke:#4c4d4d;stroke-miterlimit:10;}</style></defs><title>video</title><g id="Layer_2" data-name="Layer 2"><g id="Layer_7" data-name="Layer 7"><path class="cls-1" d="M20.31.5H.85A.38.38,0,0,0,.5.91V19a.38.38,0,0,0,.35.41H20.31a.38.38,0,0,0,.34-.41V.91A.38.38,0,0,0,20.31.5ZM20,9.55H17.18V5.85H20ZM16.48,5.44V9.55H4.67V1.32H16.48ZM4,9.55H1.19V5.85H4Zm-2.78.82H4v3.7H1.19Zm3.48,4.11V10.37H16.48V18.6H4.67Zm12.51-4.11H20v3.7H17.18Zm2.78-9V5H17.18V1.32Zm-18.77,0H4V5H1.19Zm0,17.28V14.89H4V18.6ZM20,18.6H17.18V14.89H20Z"/></g></g></svg>